<?xml version="1.0" encoding="utf-8"?>
<!-- Generator: Adobe Illustrator 23.1.0, SVG Export Plug-In . SVG Version: 6.00 Build 0)  -->
<svg version="1.1" id="Layer_1" xmlns="http://www.w3.org/2000/svg" xmlns:xlink="http://www.w3.org/1999/xlink" x="0px" y="0px"
	 viewBox="0 0 1668 214" style="enable-background:new 0 0 1668 214;" xml:space="preserve">
<style type="text/css">
	.st0{fill:none;stroke:#FF0DBF;stroke-width:9;stroke-linecap:square;}
	.st1{fill:none;stroke:#FF0DBF;stroke-width:9;}
</style>
<title>Group 6</title>
<desc>Created with Sketch.</desc>
<g id="screens-">
	<g id="Group-6" transform="translate(9.000000, 2.000000)">
		<path id="Line-Copy" class="st0" d="M557.6,71.6l69.8,53.8"/>
		<polyline id="Path-2-Copy" class="st1" points="696.8,12 667,62.8 691.2,115 		"/>
		<polyline id="Path-3-Copy" class="st1" points="758.7,15 751,102 829.2,114.7 		"/>
		<path id="Path-4-Copy" class="st1" d="M811,48.5c0,0,22.5-23,91.9,35.1"/>
		<path id="Path-5-Copy" class="st1" d="M913.4,12c0,0,106.3,72.4-0.4,112.5"/>
		<polyline id="Path-6-Copy" class="st1" points="1045.8,87 1005,22.4 1084.2,49.1 1062.9,0 		"/>
		<path id="Path-7-Copy" class="st1" d="M960.8,137c0,0,27.1,63.1-25.8,49.4s-50-55.6-76-16.3"/>
		<path id="Path-8-Copy" class="st1" d="M1013,128c0,0,37.8,54.8,93.8,68.4"/>
		<polyline id="Path-12-Copy" class="st1" points="1168,101 1194.8,135.1 1232.7,101.6 1263.6,150.3 		"/>
		<polyline id="Path-13-Copy" class="st1" points="1238,45 1296,74.4 1354,52.5 		"/>
		<path id="Path-14-Copy" class="st1" d="M1379,70c0,0,14.2,34.8,47.8,17.4"/>
		<path id="Path-23-Copy" class="st1" d="M740,151.5l70.1-0.3"/>
		<polyline id="Path-31-Copy" class="st1" points="441.5,97.3 395.8,147.7 383,85 		"/>
		<path id="Path-32-Copy" class="st1" d="M469,129v65"/>
		<path id="Path-41-Copy" class="st1" d="M341,17c0,0,6.8,37.4,45.9,16.3s42.9,4.4,42.9,4.4"/>
		<path id="Path-42-Copy" class="st1" d="M533.1,33c0,0-34.3,8.1-17.1,34.7c17.1,26.6,12.2,30.1-6,35.7"/>
		<path id="Path-48-Copy" class="st1" d="M327,98l18.3,44.7"/>
		<path id="Path-49-Copy" class="st1" d="M248,112.3c0,0,36.1-6.2,35.4,34.1"/>
		<path id="Path-50-Copy" class="st1" d="M149,124.9c0,0,7.3-37.6,75.1-81.9"/>
		<path id="Path-51-Copy" class="st1" d="M59,35.6l98.3-6.6"/>
		<polyline id="Path-53-Copy" class="st1" points="51.8,75 0,112.1 64.1,140.7 		"/>
		<path id="Path-54-Copy" class="st1" d="M123.6,71c0,0-60.4,15.9-21.7,64.4"/>
		<path id="Path-136-Copy" class="st1" d="M1154.3,54.3c0,0-42.6-5.3-39.1,28.4"/>
		<polyline id="Path-141-Copy" class="st1" points="1512,21 1589.4,30.6 1584.3,117.7 		"/>
		<path id="Path-143-Copy" class="st1" d="M1440,52c0,0,65.4,50.7,92.5,33.8"/>
		<path id="Path-144-Copy" class="st1" d="M1657.9,128.2c0,0-40.6-4.3-38.9,28.5"/>
		<polyline id="Path-200-Copy" class="st1" points="148.7,174 206.4,133 272,208.3 		"/>
		<polyline id="Path-201-Copy" class="st1" points="1301.3,120.1 1355.5,102 1325,171.6 1396.4,136 		"/>
	</g>
</g>
</svg>
